Input #0, mov,mp4,m4a,3gp,3g2,mj2, from '/home/hbattu/projects/huberman-gpt/huberman-audio/mp3/tmpn2fvnqfk.mp4':
  Metadata:
    major_brand     : dash
    minor_version   : 0
    compatible_brands: iso6mp41
    creation_time   : 2022-04-08T08:36:10.000000Z
  Duration: 02:15:08.64, start: 0.000000, bitrate: 129 kb/s
    Stream #0:0(eng): Audio: aac (LC) (mp4a / 0x6134706D), 44100 Hz, stereo, fltp, 0 kb/s (default)
    Metadata:
      creation_time   : 2022-04-08T08:36:10.000000Z
      handler_name    : ISO Media file produced by Google Inc.
Stream mapping:
  Stream #0:0 -> #0:0 (aac (native) -> mp3 (libmp3lame))
Press [q] to stop, [?] for help
[graph_0_in_0_0 @ 0x55918d21e480] tb:1/44100 samplefmt:fltp samplerate:44100 chlayout:0x3
Output #0, mp3, to '../huberman-audio/mp3/pq6WHJzOkno.mp3':
  Metadata:
    major_brand     : dash
    minor_version   : 0
    compatible_brands: iso6mp41
    TSSE            : Lavf58.29.100
    Stream #0:0(eng): Audio: mp3 (libmp3lame), 44100 Hz, stereo, fltp, delay 1105 (default)
    Metadata:
      creation_time   : 2022-04-08T08:36:10.000000Z
      handler_name    : ISO Media file produced by Google Inc.
      encoder         : Lavc58.54.100 libmp3lame
No more output streams to write to, finishing.
size=  126698kB time=02:15:08.64 bitrate= 128.0kbits/s speed=94.5x    
[AVIOContext @ 0x55918d10c900] Statistics: 0 seeks, 172 writeouts
video:0kB audio:126698kB subtitle:0kB other streams:0kB global headers:0kB muxing overhead: 0.000267%
Input file #0 (/home/hbattu/projects/huberman-gpt/huberman-audio/mp3/tmpn2fvnqfk.mp4):
  Input stream #0:0 (audio): 349210 packets read (129738245 bytes); 349210 frames decoded (357591040 samples); 
  Total: 349210 packets (129738245 bytes) demuxed
Output file #0 (../huberman-audio/mp3/pq6WHJzOkno.mp3):
  Output stream #0:0 (audio): 310409 frames encoded (357591040 samples); 310410 packets muxed (129738710 bytes); 
  Total: 310410 packets (129738710 bytes) muxed
[AVIOContext @ 0x55918d1395c0] Statistics: 2 seeks, 496 writeouts
[AVIOContext @ 0x55918d115880] Statistics: 131230057 bytes read, 0 seeks
